<svg id="visual" viewBox="0 0 900 600" width="900" height="600" xmlns="http://www.w3.org/2000/svg" xmlns:xlink="http://www.w3.org/1999/xlink" version="1.1"><rect x="0" y="0" width="900" height="600" fill="#001220"></rect><path d="M0 403L21.5 412.2C43 421.3 86 439.7 128.8 434.5C171.7 429.3 214.3 400.7 257.2 387.5C300 374.3 343 376.7 385.8 385.5C428.7 394.3 471.3 409.7 514.2 408.8C557 408 600 391 642.8 380.8C685.7 370.7 728.3 367.3 771.2 376.2C814 385 857 406 878.5 416.5L900 427L900 601L878.5 601C857 601 814 601 771.2 601C728.3 601 685.7 601 642.8 601C600 601 557 601 514.2 601C471.3 601 428.7 601 385.8 601C343 601 300 601 257.2 601C214.3 601 171.7 601 128.8 601C86 601 43 601 21.5 601L0 601Z" fill="#48cae4"></path><path d="M0 490L21.5 492.3C43 494.7 86 499.3 128.8 493C171.7 486.7 214.3 469.3 257.2 455.8C300 442.3 343 432.7 385.8 438.5C428.7 444.3 471.3 465.7 514.2 479.7C557 493.7 600 500.3 642.8 489.3C685.7 478.3 728.3 449.7 771.2 441.8C814 434 857 447 878.5 453.5L900 460L900 601L878.5 601C857 601 814 601 771.2 601C728.3 601 685.7 601 642.8 601C600 601 557 601 514.2 601C471.3 601 428.7 601 385.8 601C343 601 300 601 257.2 601C214.3 601 171.7 601 128.8 601C86 601 43 601 21.5 601L0 601Z" fill="#006ab3"></path><path d="M0 505L21.5 511.5C43 518 86 531 128.8 531.2C171.7 531.3 214.3 518.7 257.2 517.2C300 515.7 343 525.3 385.8 526.5C428.7 527.7 471.3 520.3 514.2 519.3C557 518.3 600 523.7 642.8 528.8C685.7 534 728.3 539 771.2 543.8C814 548.7 857 553.3 878.5 555.7L900 558L900 601L878.5 601C857 601 814 601 771.2 601C728.3 601 685.7 601 642.8 601C600 601 557 601 514.2 601C471.3 601 428.7 601 385.8 601C343 601 300 601 257.2 601C214.3 601 171.7 601 128.8 601C86 601 43 601 21.5 601L0 601Z" fill="#03045e"></path></svg>